<svg xmlns="http://www.w3.org/2000/svg" viewBox="0 0 1574 477" width="1574" height="477"><title>Integra POS</title><defs><linearGradient id="ig" x1="0" y1="0" x2="0" y2="1"><stop offset="0" stop-color="#3E97A9"/><stop offset="1" stop-color="#2A7585"/></linearGradient></defs><rect width="1574" height="477" fill="#0F1B1F"/><polygon points="87,87 156,87 156,320 87,348" fill="url(#ig)" stroke="url(#ig)" stroke-width="14" stroke-linejoin="round"/><polygon points="203,172 278,126 278,390 203,390" fill="url(#ig)" stroke="url(#ig)" stroke-width="14" stroke-linejoin="round"/><path d="M442.6953125 162.486328125V324.0H409.6337890625V162.486328125ZM498.1736328125 253.8662109375V324.0H465.6541015625V202.810546875H496.330859375L496.8728515625 233.0537109375H494.9216796875Q499.6912109375 217.8779296875 509.39287109375005 209.58544921875Q519.09453125 201.29296875 534.487109375 201.29296875Q547.061328125 201.29296875 556.43779296875 206.76708984375Q565.8142578125 212.2412109375 570.96318359375 222.48486328125Q576.112109375 232.728515625 576.112109375 246.9287109375V324.0H543.592578125V252.5654296875Q543.592578125 241.2919921875 537.79326171875 234.896484375Q531.9939453125 228.5009765625 521.69609375 228.5009765625Q514.8669921875 228.5009765625 509.50126953125005 231.48193359375Q504.135546875 234.462890625 501.15458984375 240.099609375Q498.1736328125 245.736328125 498.1736328125 253.8662109375ZM658.4732421875 202.810546875V227.6337890625H586.605078125V202.810546875ZM603.2984375 173.9765625H635.81796875V288.5537109375Q635.81796875 294.298828125 638.36533203125 297.06298828125Q640.9126953125 299.8271484375 646.874609375 299.8271484375Q648.7173828125 299.8271484375 652.077734375 299.33935546875Q655.4380859375 298.8515625 657.1724609375 298.41796875L661.83359375 322.8076171875Q656.413671875 324.43359375 651.04794921875 325.083984375Q645.6822265625 325.734375 640.804296875 325.734375Q622.593359375 325.734375 612.9458984375 316.845703125Q603.2984375 307.95703125 603.2984375 291.3720703125ZM726.6341796875 326.384765625Q708.098046875 326.384765625 694.656640625 318.796875Q681.215234375 311.208984375 674.00673828125 297.2255859375Q666.7982421875 283.2421875 666.7982421875 264.0556640625Q666.7982421875 245.302734375 673.9525390625 231.2109375Q681.1068359375 217.119140625 694.223046875 209.2060546875Q707.3392578125 201.29296875 725.008203125 201.29296875Q736.93203125 201.29296875 747.2298828125 205.0869140625Q757.527734375 208.880859375 765.332421875 216.52294921875Q773.137109375 224.1650390625 777.52724609375 235.6552734375Q781.9173828125 247.1455078125 781.9173828125 262.7548828125V271.8603515625H680.13125V251.4814453125H765.9828125L750.80703125 256.9013671875Q750.80703125 247.470703125 747.93447265625 240.47900390625Q745.0619140625 233.4873046875 739.37099609375 229.63916015625Q733.680078125 225.791015625 725.3333984375 225.791015625Q716.8783203125 225.791015625 710.97060546875 229.693359375Q705.062890625 233.595703125 702.027734375 240.26220703125Q698.992578125 246.9287109375 698.992578125 255.4921875V269.9091796875Q698.992578125 280.423828125 702.51552734375 287.578125Q706.0384765625 294.732421875 712.37978515625 298.3095703125Q718.72109375 301.88671875 727.176171875 301.88671875Q732.9212890625 301.88671875 737.582421875 300.2607421875Q742.2435546875 298.634765625 745.54970703125 295.43701171875Q748.855859375 292.2392578125 750.590234375 287.578125L780.074609375 293.1064453125Q777.1478515625 303.0791015625 769.88515625 310.61279296875Q762.6224609375 318.146484375 751.72841796875 322.265625Q740.834375 326.384765625 726.6341796875 326.384765625ZM852.4630859375001 371.912109375Q837.2873046875001 371.912109375 826.0138671875001 368.06396484375Q814.7404296875001 364.2158203125 807.6945312500001 357.4951171875Q800.6486328125001 350.7744140625 797.9386718750001 342.2109375L825.9054687500001 334.40625Q827.4230468750001 337.7666015625 830.6208007812501 340.96435546875Q833.8185546875001 344.162109375 839.1300781250001 346.2216796875Q844.4416015625001 348.28125 852.2462890625001 348.28125Q864.7121093750001 348.28125 871.8122070312501 342.59033203125Q878.9123046875001 336.8994140625 878.9123046875001 324.8671875V302.537109375H876.4191406250001Q874.2511718750001 307.4150390625 870.1320312500001 311.9677734375Q866.0128906250001 316.5205078125 859.3463867187501 319.39306640625Q852.6798828125001 322.265625 842.8156250000001 322.265625Q829.1574218750001 322.265625 817.9923828125001 315.8701171875Q806.8273437500001 309.474609375 800.1608398437501 296.3583984375Q793.4943359375001 283.2421875 793.4943359375001 263.1884765625Q793.4943359375001 242.701171875 800.2692382812501 228.9345703125Q807.0441406250001 215.16796875 818.2633789062501 208.23046875Q829.4826171875001 201.29296875 842.9240234375001 201.29296875Q853.1134765625001 201.29296875 860.0509765625001 204.70751953125Q866.9884765625001 208.1220703125 871.2702148437501 213.27099609375Q875.5519531250001 218.419921875 877.7199218750001 223.189453125H879.1291015625001V202.810546875H911.1066406250001V323.0244140625Q911.1066406250001 339.392578125 903.5729492187501 350.232421875Q896.0392578125001 361.072265625 882.8146484375001 366.4921875Q869.5900390625001 371.912109375 852.4630859375001 371.912109375ZM853.0050781250001 297.55078125Q861.3517578125001 297.55078125 867.1510742187501 293.431640625Q872.9503906250001 289.3125 875.9855468750001 281.56201171875Q879.0207031250001 273.8115234375 879.0207031250001 262.9716796875Q879.0207031250001 252.240234375 875.9855468750001 244.21875Q872.9503906250001 236.197265625 867.1510742187501 231.7529296875Q861.3517578125001 227.30859375 853.0050781250001 227.30859375Q844.4416015625001 227.30859375 838.6422851562501 231.91552734375Q832.8429687500001 236.5224609375 829.8620117187501 244.5439453125Q826.8810546875001 252.5654296875 826.8810546875001 262.9716796875Q826.8810546875001 273.5947265625 829.8620117187501 281.34521484375Q832.8429687500001 289.095703125 838.6964843750001 293.3232421875Q844.5500000000001 297.55078125 853.0050781250001 297.55078125ZM933.306640625 324.0V202.810546875H964.7421875V223.9482421875H966.04296875Q969.4033203125 212.6748046875 977.26220703125 206.9296875Q985.12109375 201.1845703125 995.310546875 201.1845703125Q997.8037109375 201.1845703125 1000.73046875 201.45556640625Q1003.6572265625 201.7265625 1005.8251953125 202.2685546875V231.3193359375Q1003.6572265625 230.560546875 999.5380859375 230.126953125Q995.4189453125 229.693359375 991.7333984375 229.693359375Q984.3623046875 229.693359375 978.400390625 232.89111328125Q972.4384765625 236.0888671875 969.13232421875 241.77978515625Q965.826171875 247.470703125 965.826171875 255.05859375V324.0ZM1048.94609375 326.384765625Q1037.455859375 326.384765625 1028.29619140625 322.31982421875Q1019.1365234375 318.2548828125 1013.87919921875 310.17919921875Q1008.621875 302.103515625 1008.621875 290.0712890625Q1008.621875 279.990234375 1012.36162109375 273.1611328125Q1016.1013671875 266.33203125 1022.55107421875 262.212890625Q1029.00078125 258.09375 1037.18486328125 255.92578125Q1045.3689453125 253.7578125 1054.366015625 252.890625Q1064.8806640625 251.806640625 1071.33037109375 250.88525390625Q1077.780078125 249.9638671875 1080.76103515625 247.95849609375Q1083.7419921875 245.953125 1083.7419921875 242.05078125V241.5087890625Q1083.7419921875 236.3056640625 1081.5740234375 232.728515625Q1079.4060546875 229.1513671875 1075.12431640625 227.25439453125Q1070.842578125 225.357421875 1064.772265625 225.357421875Q1058.48515625 225.357421875 1053.8240234375 227.25439453125Q1049.162890625 229.1513671875 1046.2361328125 232.294921875Q1043.309375 235.4384765625 1041.9001953125 239.3408203125L1012.090625 234.462890625Q1015.2341796875 223.83984375 1022.496875 216.46875Q1029.7595703125 209.09765625 1040.54521484375 205.1953125Q1051.330859375 201.29296875 1064.8806640625 201.29296875Q1074.6365234375 201.29296875 1083.850390625 203.62353515625Q1093.0642578125 205.9541015625 1100.38115234375 210.83203125Q1107.698046875 215.7099609375 1111.97978515625 223.56884765625Q1116.2615234375 231.427734375 1116.2615234375 242.3759765625V324.0H1085.4763671875V307.1982421875H1084.3923828125Q1081.465625 312.8349609375 1076.5876953125 317.11669921875Q1071.709765625 321.3984375 1064.82646484375 323.8916015625Q1057.9431640625 326.384765625 1048.94609375 326.384765625ZM1058.1599609375 303.5126953125Q1065.85625 303.5126953125 1071.65556640625 300.4775390625Q1077.4548828125 297.4423828125 1080.7068359375 292.2392578125Q1083.9587890625 287.0361328125 1083.9587890625 280.640625V267.5244140625Q1082.549609375 268.6083984375 1079.6228515625 269.4755859375Q1076.69609375 270.3427734375 1073.1189453125 270.9931640625Q1069.541796875 271.6435546875 1066.073046875 272.185546875Q1062.604296875 272.7275390625 1059.8943359375 273.052734375Q1053.932421875 273.919921875 1049.3796875 275.87109375Q1044.826953125 277.822265625 1042.3337890625 281.02001953125Q1039.840625 284.2177734375 1039.840625 289.2041015625Q1039.840625 293.865234375 1042.225390625 297.06298828125Q1044.61015625 300.2607421875 1048.729296875 301.88671875Q1052.8484375 303.5126953125 1058.1599609375 303.5126953125Z" fill="#FFFFFF"/><path d="M1188.9763671875 324.0V216.32421875H1229.2283203125Q1241.5857421875 216.32421875 1250.0408203125 220.94921875Q1258.4958984375 225.57421875 1262.8318359375 233.6318359375Q1267.1677734375 241.689453125 1267.1677734375 251.951171875Q1267.1677734375 262.28515625 1262.795703125 270.306640625Q1258.4236328125 278.328125 1249.8962890625 282.953125Q1241.3689453125 287.578125 1228.9392578125 287.578125H1202.2732421875V271.6796875H1226.4099609375Q1233.7087890625 271.6796875 1238.369921875 269.150390625Q1243.0310546875 266.62109375 1245.23515625 262.140625Q1247.4392578125 257.66015625 1247.4392578125 251.951171875Q1247.4392578125 246.2421875 1245.23515625 241.833984375Q1243.0310546875 237.42578125 1238.3337890625 234.96875Q1233.6365234375 232.51171875 1226.2654296875 232.51171875H1208.2712890625V324.0ZM1335.7247265625 325.4453125Q1321.5606640625 325.4453125 1310.3594921875 318.869140625Q1299.1583203125 312.29296875 1292.690546875 299.935546875Q1286.2227734375 287.578125 1286.2227734375 270.234375Q1286.2227734375 252.818359375 1292.690546875 240.4248046875Q1299.1583203125 228.03125 1310.3594921875 221.455078125Q1321.5606640625 214.87890625 1335.7247265625 214.87890625Q1349.8165234375 214.87890625 1360.9815625 221.455078125Q1372.1466015625 228.03125 1378.614375 240.4248046875Q1385.0821484375 252.818359375 1385.0821484375 270.234375Q1385.0821484375 287.578125 1378.614375 299.9716796875Q1372.1466015625 312.365234375 1360.9815625 318.9052734375Q1349.8165234375 325.4453125 1335.7247265625 325.4453125ZM1335.7247265625 308.173828125Q1344.4688671875 308.173828125 1351.225703125 303.8017578125Q1357.9825390625 299.4296875 1361.8126171875 290.9384765625Q1365.6426953125 282.447265625 1365.6426953125 270.234375Q1365.6426953125 257.876953125 1361.8126171875 249.3857421875Q1357.9825390625 240.89453125 1351.225703125 236.5224609375Q1344.4688671875 232.150390625 1335.7247265625 232.150390625Q1326.9083203125 232.150390625 1320.1153515625 236.55859375Q1313.3223828125 240.966796875 1309.456171875 249.4580078125Q1305.5899609375 257.94921875 1305.5899609375 270.234375Q1305.5899609375 282.447265625 1309.456171875 290.90234375Q1313.3223828125 299.357421875 1320.1153515625 303.765625Q1326.9083203125 308.173828125 1335.7247265625 308.173828125ZM1446.3402734375002 325.662109375Q1433.8383203125002 325.662109375 1424.6244531250002 321.759765625Q1415.4105859375002 317.857421875 1410.2074609375002 310.4140625Q1405.0043359375002 302.970703125 1404.5707421875002 292.34765625H1423.5766015625002Q1424.0824609375002 297.984375 1427.1176171875002 301.7421875Q1430.1527734375002 305.5 1435.1391015625002 307.3427734375Q1440.1254296875002 309.185546875 1446.1957421875002 309.185546875Q1452.5551171875002 309.185546875 1457.4330468750002 307.234375Q1462.3109765625002 305.283203125 1465.0570703125002 301.7783203125Q1467.8031640625002 298.2734375 1467.8031640625002 293.6484375Q1467.8031640625002 289.45703125 1465.3822656250002 286.7109375Q1462.9613671875002 283.96484375 1458.5892968750002 282.0498046875Q1454.2172265625002 280.134765625 1448.3637109375002 278.689453125L1436.1508203125002 275.509765625Q1422.6371484375002 272.041015625 1415.0853906250002 265.03125Q1407.5336328125002 258.021484375 1407.5336328125002 246.603515625Q1407.5336328125002 237.064453125 1412.6644921875002 229.91015625Q1417.7953515625002 222.755859375 1426.6840234375002 218.8173828125Q1435.5726953125002 214.87890625 1446.8461328125002 214.87890625Q1458.3363671875002 214.87890625 1467.0082421875002 218.853515625Q1475.6801171875002 222.828125 1480.5580468750002 229.837890625Q1485.4359765625002 236.84765625 1485.6527734375002 245.80859375H1466.9359765625002Q1466.2133203125002 238.87109375 1460.7572656250002 235.0771484375Q1455.3012109375002 231.283203125 1446.5570703125002 231.283203125Q1440.4867578125002 231.283203125 1436.1146875000002 233.1259765625Q1431.7426171875002 234.96875 1429.3939843750002 238.1484375Q1427.0453515625002 241.328125 1427.0453515625002 245.447265625Q1427.0453515625002 249.927734375 1429.8275781250002 252.818359375Q1432.6098046875002 255.708984375 1436.8373437500002 257.443359375Q1441.0648828125002 259.177734375 1445.4008203125002 260.26171875L1455.4457421875002 262.86328125Q1461.4437890625002 264.30859375 1467.0805078125002 266.693359375Q1472.7172265625002 269.078125 1477.2338281250002 272.7275390625Q1481.7504296875002 276.376953125 1484.4242578125002 281.580078125Q1487.0980859375002 286.783203125 1487.0980859375002 293.79296875Q1487.0980859375002 303.259765625 1482.2562890625002 310.4501953125Q1477.4144921875002 317.640625 1468.3090234375002 321.6513671875Q1459.2035546875002 325.662109375 1446.3402734375002 325.662109375Z" fill="#F5A054"/></svg>